<?xml version="1.0" standalone="no"?>
<!DOCTYPE svg PUBLIC "-//W3C//DTD SVG 20010904//EN"
 "http://www.w3.org/TR/2001/REC-SVG-20010904/DTD/svg10.dtd">
<svg version="1.0" xmlns="http://www.w3.org/2000/svg"
 width="431.000000pt" height="133.000000pt" viewBox="0 0 431.000000 133.000000"
 preserveAspectRatio="xMidYMid meet">

<g transform="translate(0.000000,133.000000) scale(0.100000,-0.100000)"
fill="#000000" stroke="none">
<path d="M1522 618 l3 -383 72 -3 c71 -3 73 -2 79 24 4 15 5 141 2 280 -3 140
-2 254 1 254 4 0 42 -115 84 -255 43 -140 82 -266 87 -280 9 -24 12 -25 104
-25 81 0 97 3 104 18 5 9 44 132 87 272 42 140 81 259 86 265 5 5 9 -102 9
-273 l0 -283 73 3 72 3 3 383 2 382 -119 0 -120 0 -29 -92 c-15 -51 -57 -191
-92 -310 -36 -120 -69 -217 -74 -215 -5 2 -50 140 -100 307 l-92 305 -122 3
-122 3 2 -383z"/>
<path d="M2583 980 c-17 -10 -37 -28 -42 -39 -7 -13 -11 -127 -11 -321 0 -340
1 -346 70 -374 34 -13 83 -16 296 -16 284 0 309 4 344 62 19 31 20 50 20 321
0 317 -3 337 -59 370 -26 15 -63 17 -308 17 -258 0 -280 -1 -310 -20z m517
-360 l0 -260 -210 0 -210 0 0 253 c0 140 3 257 7 260 3 4 98 7 210 7 l203 0 0
-260z"/>
<path d="M3633 983 c-4 -10 -76 -180 -159 -378 -84 -198 -149 -364 -145 -368
4 -4 41 -7 81 -5 l73 3 74 180 c149 368 166 406 174 398 16 -17 129 -317 122
-324 -5 -5 -37 -9 -71 -11 l-64 -3 -23 -57 -24 -58 120 0 120 0 29 -65 29 -65
75 0 c41 0 77 3 79 8 3 4 -41 115 -97 247 -56 132 -128 302 -160 378 l-58 137
-84 0 c-71 0 -86 -3 -91 -17z"/>
</g>
</svg>
