<?xml version="1.0" standalone="no"?>
<!DOCTYPE svg PUBLIC "-//W3C//DTD SVG 20010904//EN"
 "http://www.w3.org/TR/2001/REC-SVG-20010904/DTD/svg10.dtd">
<svg version="1.0" xmlns="http://www.w3.org/2000/svg"
 width="1375.000000pt" height="196.000000pt" viewBox="0 0 1375.000000 196.000000"
 preserveAspectRatio="xMidYMid meet">

<g transform="translate(0.000000,196.000000) scale(0.100000,-0.100000)"
fill="#000000" stroke="none">
<path d="M23 1894 c-23 -10 -13 -35 42 -107 l55 -70 0 -808 c0 -444 3 -814 6
-823 5 -14 50 -16 401 -16 450 0 538 8 716 67 402 133 639 485 613 910 -23
379 -234 657 -591 780 -176 61 -218 65 -745 69 -267 2 -491 1 -497 -2z m959
-445 c77 -16 180 -74 233 -130 92 -99 135 -253 115 -413 -22 -176 -99 -285
-252 -356 -80 -37 -161 -50 -320 -50 l-128 0 0 480 0 480 150 0 c82 0 173 -5
202 -11z"/>
<path d="M4183 1893 c-24 -9 -13 -36 42 -108 l55 -72 0 -464 c0 -355 4 -486
15 -559 42 -277 168 -460 390 -566 122 -58 208 -76 405 -81 151 -4 189 -2 276
16 189 39 299 97 413 216 80 85 135 188 172 325 23 83 23 96 27 684 2 484 1
601 -10 607 -7 5 -144 9 -303 9 -281 0 -315 -3 -315 -30 0 -4 25 -40 55 -81
l56 -74 -3 -495 -3 -495 -28 -57 c-35 -72 -104 -133 -170 -153 -62 -19 -199
-19 -250 -1 -96 35 -163 112 -192 221 -13 50 -15 144 -15 600 0 407 -3 544
-12 553 -9 9 -89 12 -302 11 -160 0 -297 -3 -303 -6z"/>
<path d="M6283 1893 c-10 -3 -13 -56 -13 -214 0 -115 1 -210 3 -211 1 -1 197
-5 434 -8 l433 -5 -347 -390 c-190 -214 -392 -443 -449 -508 l-104 -118 2
-182 3 -182 800 0 800 0 0 210 0 210 -447 3 c-247 1 -448 4 -448 7 0 3 203
233 450 511 l450 506 0 183 c0 158 -2 184 -16 189 -19 7 -1533 7 -1551 -1z"/>
<path d="M10123 1893 c-24 -9 -13 -35 42 -107 l55 -72 2 -820 3 -819 248 -3
c136 -1 248 -1 249 0 2 2 5 223 8 492 l5 489 378 -486 c235 -301 387 -487 400
-491 12 -3 113 -6 223 -6 175 0 203 2 208 16 3 9 6 415 6 903 0 677 -3 890
-12 899 -9 9 -89 12 -301 12 -272 0 -327 -5 -327 -29 0 -4 29 -45 65 -91 l65
-83 0 -374 c0 -205 -2 -373 -4 -373 -3 0 -167 210 -367 466 -221 285 -371 469
-386 475 -25 9 -538 12 -560 2z"/>
<path d="M12185 1887 c-21 -16 -21 -17 49 -107 l51 -64 5 -821 5 -820 719 -3
c569 -2 721 0 728 10 9 15 11 379 2 402 -5 14 -57 16 -475 16 l-469 0 0 145 0
145 423 2 422 3 3 184 c2 141 -1 186 -10 193 -7 4 -199 8 -425 8 l-413 0 0
140 0 140 459 0 c404 0 461 2 475 16 13 13 16 46 16 208 0 136 -3 195 -12 204
-19 19 -1527 17 -1553 -1z"/>
</g>
</svg>
