<?xml version="1.0" standalone="no"?>
<!DOCTYPE svg PUBLIC "-//W3C//DTD SVG 20010904//EN"
 "http://www.w3.org/TR/2001/REC-SVG-20010904/DTD/svg10.dtd">
<svg version="1.0" xmlns="http://www.w3.org/2000/svg"
 width="160.000000pt" height="47.000000pt" viewBox="0 0 160.000000 47.000000"
 preserveAspectRatio="xMidYMid meet">

<g transform="translate(0.000000,47.000000) scale(0.100000,-0.100000)"
fill="#000000" stroke="none">
<path d="M317 372 c-13 -14 -17 -38 -17 -94 0 -62 3 -78 20 -93 20 -18 20 -17
20 93 0 62 -2 112 -3 112 -2 0 -11 -8 -20 -18z"/>
<path d="M410 372 c-32 -26 -21 -65 22 -82 51 -18 63 -26 63 -41 0 -21 -63
-25 -71 -5 -8 20 -34 21 -34 2 0 -26 30 -46 70 -46 88 0 96 92 10 114 -36 9
-54 22 -46 35 11 16 47 13 68 -6 29 -26 46 -1 19 26 -26 26 -71 27 -101 3z"/>
<path d="M94 275 c0 -60 1 -84 3 -52 2 32 2 81 0 110 -2 29 -3 3 -3 -58z"/>
<path d="M590 333 c-40 -14 -52 -71 -24 -111 22 -31 94 -28 94 4 0 17 -5 17
-29 2 -15 -9 -23 -9 -35 1 -27 22 -18 31 29 31 38 0 45 3 45 20 0 23 -34 60
-52 59 -7 0 -20 -3 -28 -6z m48 -40 c2 -9 -7 -13 -27 -13 -23 0 -29 4 -24 16
6 17 44 15 51 -3z"/>
<path d="M715 315 c-44 -43 -22 -115 35 -115 33 0 67 27 51 43 -6 6 -15 4 -27
-7 -29 -30 -62 1 -50 47 7 29 33 36 54 15 9 -9 15 -9 23 -1 8 8 4 15 -12 27
-32 22 -46 20 -74 -9z"/>
<path d="M842 268 c3 -57 5 -63 26 -66 13 -2 29 2 37 8 9 7 15 8 20 0 16 -25
25 -5 25 55 0 37 -4 65 -10 65 -5 0 -10 -17 -10 -38 0 -89 -62 -96 -68 -8 -5
71 -23 56 -20 -16z"/>
<path d="M980 318 c1 -7 9 -47 19 -88 12 -51 23 -76 34 -78 15 -3 20 8 43 101
3 15 10 27 15 27 8 0 39 -92 39 -118 0 -7 7 -12 16 -10 20 4 67 178 48 178 -6
0 -17 -27 -24 -60 -7 -33 -16 -60 -21 -60 -5 0 -13 19 -19 43 -19 74 -21 77
-39 77 -13 0 -21 -14 -31 -55 -7 -31 -17 -58 -21 -61 -7 -4 -22 40 -31 90 -3
22 -28 35 -28 14z"/>
<path d="M1233 215 c0 -38 2 -53 4 -32 2 20 2 52 0 70 -2 17 -4 1 -4 -38z"/>
<path d="M120 175 l-23 -25 118 0 118 0 -23 25 c-21 22 -32 25 -95 25 -63 0
-74 -3 -95 -25z"/>
</g>
</svg>
