<?xml version="1.0" standalone="no"?>
<!DOCTYPE svg PUBLIC "-//W3C//DTD SVG 20010904//EN"
 "http://www.w3.org/TR/2001/REC-SVG-20010904/DTD/svg10.dtd">
<svg version="1.0" xmlns="http://www.w3.org/2000/svg"
 width="276.000000pt" height="40.000000pt" viewBox="0 0 276.000000 40.000000"
 preserveAspectRatio="xMidYMid meet">

<g transform="translate(0.000000,40.000000) scale(0.100000,-0.100000)"
fill="#000000" stroke="none">
<path d="M43 366 c-28 -24 -28 -26 -31 -157 -4 -137 6 -186 35 -174 8 2 12 1
9 -4 -12 -18 32 -21 320 -21 l295 0 24 25 c24 23 25 29 25 164 0 150 -4 161
-57 182 -13 5 -152 9 -308 9 l-284 0 -28 -24z m635 -22 c21 -14 22 -22 22
-141 0 -104 -3 -130 -17 -145 -15 -17 -38 -18 -312 -18 -163 0 -301 4 -307 8
-25 17 -30 48 -26 160 3 87 8 122 20 135 14 15 42 17 306 17 248 0 295 -2 314
-16z"/>
<path d="M172 284 c-51 -35 -14 -104 64 -118 29 -6 35 -11 32 -29 -4 -31 -62
-37 -80 -8 -15 24 -48 28 -48 6 0 -9 12 -28 26 -42 22 -22 32 -25 71 -20 54 6
76 25 76 67 0 38 -8 47 -69 68 -54 20 -65 45 -21 50 18 2 29 -2 33 -12 7 -18
54 -22 54 -6 0 6 -11 22 -25 35 -28 29 -79 33 -113 9z"/>
<path d="M355 288 c-3 -8 -4 -59 -3 -114 3 -85 5 -99 21 -102 14 -3 17 4 17
47 l0 51 45 0 45 0 0 -51 c0 -47 2 -50 23 -47 21 3 22 7 22 112 0 94 -2 109
-17 112 -12 1 -18 -9 -23 -42 -6 -44 -6 -44 -48 -44 l-42 0 0 42 c0 33 -4 43
-18 46 -9 2 -19 -3 -22 -10z"/>
<path d="M580 275 c0 -8 7 -15 15 -15 8 0 15 7 15 15 0 8 -7 15 -15 15 -8 0
-15 -7 -15 -15z"/>
<path d="M580 150 c0 -66 2 -78 15 -74 22 9 22 154 0 154 -12 0 -15 -16 -15
-80z"/>
<path d="M840 336 c0 -7 -3 -29 -6 -47 -5 -23 -3 -31 3 -24 15 15 26 85 13 85
-5 0 -10 -6 -10 -14z"/>
<path d="M880 341 c0 -5 5 -11 10 -13 7 -2 7 -14 1 -36 -5 -17 -6 -32 -1 -32
10 0 20 25 20 51 0 10 6 19 14 19 8 0 18 5 21 10 4 6 -8 10 -29 10 -20 0 -36
-4 -36 -9z"/>
<path d="M983 334 c-4 -11 1 -22 16 -33 12 -9 19 -20 15 -24 -4 -4 -13 -2 -21
5 -15 12 -28 5 -18 -11 10 -17 55 -13 62 5 4 11 -2 23 -18 35 -13 10 -21 21
-17 25 4 4 15 1 24 -7 15 -12 17 -12 12 1 -7 22 -47 25 -55 4z"/>
<path d="M1141 313 c-13 -47 -13 -53 -2 -53 10 0 26 78 18 87 -3 3 -10 -12
-16 -34z"/>
<path d="M1300 339 c0 -5 5 -7 10 -4 6 3 10 8 10 11 0 2 -4 4 -10 4 -5 0 -10
-5 -10 -11z"/>
<path d="M1596 342 c-2 -4 -7 -25 -11 -47 -6 -36 -5 -38 8 -22 8 9 21 17 29
17 26 0 43 27 28 45 -13 16 -46 20 -54 7z m44 -22 c0 -5 -9 -10 -21 -10 -11 0
-17 5 -14 10 3 6 13 10 21 10 8 0 14 -4 14 -10z"/>
<path d="M1264 329 c-5 -8 -11 -26 -13 -41 -2 -24 1 -28 22 -28 17 0 27 7 31
23 9 32 8 37 -8 37 -8 0 -16 5 -18 11 -2 7 -7 7 -14 -2z m26 -39 c0 -11 -4
-20 -10 -20 -5 0 -10 9 -10 20 0 11 5 20 10 20 6 0 10 -9 10 -20z"/>
<path d="M1796 332 c-4 -7 -18 -12 -31 -12 -22 0 -35 -17 -35 -46 0 -8 5 -14
10 -14 6 0 10 9 10 19 0 10 7 21 15 25 11 4 15 -1 15 -18 0 -12 3 -25 6 -28
12 -13 43 5 48 28 4 13 11 24 17 24 7 0 9 -10 5 -25 -4 -14 -2 -25 3 -25 10 0
21 47 13 55 -3 3 -18 5 -33 5 -15 0 -29 5 -31 12 -3 9 -6 9 -12 0z m22 -39
c-2 -9 -8 -18 -15 -20 -7 -3 -9 3 -6 16 6 25 26 28 21 4z"/>
<path d="M2067 327 c-4 -10 -7 -26 -7 -35 1 -15 2 -15 11 1 6 10 9 25 7 35 -3
16 -4 15 -11 -1z"/>
<path d="M2098 310 c-5 -35 7 -41 16 -7 8 30 7 37 -3 37 -5 0 -11 -13 -13 -30z"/>
<path d="M1070 315 c-19 -23 -8 -50 20 -50 19 0 26 6 28 24 5 35 -26 53 -48
26z m34 -13 c2 -4 1 -14 -4 -22 -7 -11 -12 -12 -21 -3 -6 6 -8 16 -5 22 8 13
23 14 30 3z"/>
<path d="M1335 314 c-9 -9 -14 -23 -11 -31 3 -8 6 -17 6 -19 0 -12 49 -2 54
12 10 25 7 33 -13 44 -15 7 -24 6 -36 -6z m35 -18 c0 -16 -18 -31 -27 -22 -8
8 5 36 17 36 5 0 10 -6 10 -14z"/>
<path d="M1176 298 c-9 -36 -8 -38 23 -38 24 0 29 5 33 30 3 17 1 30 -4 30 -4
0 -8 -6 -8 -14 0 -7 -7 -20 -17 -27 -15 -13 -16 -11 -11 14 6 32 -7 37 -16 5z"/>
<path d="M1404 295 c-9 -35 3 -44 15 -11 13 33 34 35 25 1 -4 -15 -2 -25 5
-25 6 0 11 14 11 30 0 25 -4 30 -25 30 -18 0 -26 -7 -31 -25z"/>
<path d="M1480 309 c0 -7 8 -18 18 -26 16 -13 15 -13 -7 -7 -16 4 -21 3 -17
-5 4 -6 18 -11 32 -11 28 0 32 24 7 40 -17 11 -17 11 0 6 9 -3 17 -1 17 4 0 6
-11 10 -25 10 -14 0 -25 -5 -25 -11z"/>
<path d="M1673 306 c3 -8 1 -16 -5 -18 -7 -3 -9 -12 -5 -21 11 -30 57 -2 57
36 0 12 -8 17 -26 17 -19 0 -25 -4 -21 -14z m27 -26 c0 -5 -5 -10 -11 -10 -5
0 -7 5 -4 10 3 6 8 10 11 10 2 0 4 -4 4 -10z"/>
<path d="M1897 314 c-12 -12 -8 -52 6 -57 20 -8 36 6 39 33 2 19 -2 26 -17 28
-12 2 -24 0 -28 -4z m33 -8 c0 -3 -4 -8 -10 -11 -5 -3 -10 -1 -10 4 0 6 5 11
10 11 6 0 10 -2 10 -4z"/>
<path d="M1965 305 c-3 -8 -7 -22 -10 -30 -2 -8 0 -15 5 -15 6 0 10 5 10 10 0
6 9 19 20 30 l20 20 -20 0 c-11 0 -23 -7 -25 -15z"/>
<path d="M2050 259 c0 -5 5 -7 10 -4 6 3 10 8 10 11 0 2 -4 4 -10 4 -5 0 -10
-5 -10 -11z"/>
<path d="M2090 259 c0 -5 5 -7 10 -4 6 3 10 8 10 11 0 2 -4 4 -10 4 -5 0 -10
-5 -10 -11z"/>
<path d="M846 204 c-29 -28 -20 -62 22 -83 21 -11 45 -27 53 -37 8 -10 9 -15
2 -11 -6 4 -14 3 -18 -3 -11 -17 -53 -11 -68 11 -17 24 -32 10 -22 -20 14 -45
116 -31 123 17 4 25 -22 62 -43 62 -16 0 -47 35 -38 43 13 13 61 7 67 -9 6
-15 26 -11 26 6 0 35 -75 53 -104 24z"/>
<path d="M1695 188 c-38 -165 -38 -165 -11 -155 8 3 16 21 18 39 3 31 6 33 45
36 l42 3 -10 -33 c-12 -43 -11 -48 4 -48 7 0 20 36 33 90 19 81 19 91 5 88 -9
-2 -18 -17 -21 -33 -4 -27 -10 -30 -44 -33 l-38 -3 4 35 c5 41 -18 52 -27 14z"/>
<path d="M1885 200 c-3 -5 1 -10 9 -10 9 0 16 5 16 10 0 6 -4 10 -9 10 -6 0
-13 -4 -16 -10z"/>
<path d="M2366 198 c-3 -7 -9 -42 -16 -77 -6 -34 -14 -69 -17 -77 -3 -8 1 -14
11 -14 9 0 16 3 16 8 0 4 9 44 19 90 16 69 17 82 5 82 -8 0 -16 -6 -18 -12z"/>
<path d="M1957 171 c-16 -18 -23 -31 -15 -33 8 -3 9 -15 1 -44 -12 -47 -7 -64
17 -64 24 0 34 16 16 23 -11 4 -12 14 -6 43 5 20 13 40 19 43 6 4 7 18 3 34
l-7 27 -28 -29z"/>
<path d="M1000 150 c-37 -37 -19 -120 26 -120 21 0 54 19 54 30 0 5 -16 8 -36
7 -22 -1 -39 3 -41 11 -3 8 9 12 41 12 44 0 46 1 46 28 0 52 -51 71 -90 32z
m70 -30 c0 -6 -13 -10 -30 -10 -32 0 -37 9 -18 28 12 12 48 -1 48 -18z"/>
<path d="M1142 150 c-33 -31 -31 -96 3 -112 19 -8 31 -8 50 0 27 13 34 42 10
42 -8 0 -15 -4 -15 -10 0 -15 -38 -12 -43 3 -2 6 0 24 6 40 9 28 34 36 54 16
16 -16 28 8 13 26 -18 21 -53 18 -78 -5z"/>
<path d="M1270 114 c-16 -74 -11 -82 44 -82 50 1 47 -4 70 101 11 48 -20 32
-33 -17 -12 -49 -36 -75 -52 -59 -7 7 -7 23 0 49 14 52 14 64 -3 64 -10 0 -19
-19 -26 -56z"/>
<path d="M1451 161 c-13 -8 -44 -121 -36 -129 10 -11 35 9 35 28 0 30 28 80
45 80 15 0 30 18 22 26 -3 3 -14 1 -25 -5 -13 -7 -22 -7 -24 -1 -2 5 -9 6 -17
1z"/>
<path d="M1565 158 c-11 -6 -23 -16 -27 -22 -12 -17 -9 -81 4 -94 17 -17 63
-15 78 3 18 21 4 32 -21 17 -16 -10 -24 -10 -35 -1 -25 20 -15 29 31 29 41 0
45 2 45 24 0 26 -24 56 -43 56 -7 0 -21 -6 -32 -12z m49 -33 c4 -11 -2 -15
-24 -15 -29 0 -38 9 -23 23 12 12 41 7 47 -8z"/>
<path d="M1866 118 c-4 -24 -9 -53 -13 -65 -3 -16 -1 -23 10 -23 9 0 17 15 21
42 4 24 9 53 13 66 3 15 1 22 -10 22 -9 0 -17 -15 -21 -42z"/>
<path d="M2026 138 c-19 -27 -21 -79 -4 -96 16 -16 63 -15 77 1 15 19 3 28
-19 15 -14 -9 -22 -9 -34 1 -23 19 -10 31 35 31 34 0 39 3 39 23 0 13 -5 28
-12 35 -20 20 -65 14 -82 -10z m69 -18 c0 -9 -11 -16 -27 -18 -27 -3 -38 14
-21 32 12 12 48 2 48 -14z"/>
<path d="M2171 141 c-23 -23 -28 -80 -9 -99 17 -17 63 -15 78 3 19 22 4 31
-26 15 -22 -12 -27 -12 -34 0 -10 16 -4 47 12 68 12 14 38 16 38 2 0 -5 7 -10
16 -10 9 0 14 7 12 18 -5 26 -62 28 -87 3z"/>
<path d="M2419 101 c-6 -31 -14 -60 -16 -64 -3 -5 3 -7 13 -5 12 2 21 16 26
42 10 48 24 66 50 66 21 0 21 -8 2 -84 -5 -20 -2 -26 9 -26 11 0 19 17 27 55
6 30 9 59 5 64 -3 6 -28 9 -55 9 l-49 -1 -12 -56z"/>
<path d="M2595 140 c-25 -28 -25 -88 0 -106 20 -15 51 -10 74 12 22 20 5 29
-24 14 -32 -17 -49 -3 -40 33 10 38 29 51 54 35 25 -15 39 -4 21 17 -18 21
-64 19 -85 -5z"/>
<path d="M2710 45 c0 -8 7 -15 15 -15 8 0 15 7 15 15 0 8 -7 15 -15 15 -8 0
-15 -7 -15 -15z"/>
</g>
</svg>
