<?xml version="1.0" standalone="no"?>
<!DOCTYPE svg PUBLIC "-//W3C//DTD SVG 20010904//EN"
 "http://www.w3.org/TR/2001/REC-SVG-20010904/DTD/svg10.dtd">
<svg version="1.0" xmlns="http://www.w3.org/2000/svg"
 width="190.000000pt" height="36.000000pt" viewBox="0 0 190.000000 36.000000"
 preserveAspectRatio="xMidYMid meet">

<g transform="translate(0.000000,36.000000) scale(0.100000,-0.100000)"
fill="#000000" stroke="none">
<path d="M287 249 c-30 -16 -36 -23 -27 -34 6 -7 10 -25 8 -40 -3 -24 1 -28
30 -31 l32 -4 0 65 c0 36 -1 65 -2 65 -2 -1 -20 -10 -41 -21z"/>
<path d="M82 207 c-6 -7 -9 -23 -6 -34 7 -24 -27 -49 -52 -39 -9 3 -12 1 -9
-4 3 -6 15 -10 26 -10 14 0 19 -7 19 -27 0 -30 16 -21 22 12 3 16 12 20 58 20
70 1 84 9 68 35 -16 26 0 40 18 16 12 -17 14 -17 20 -3 3 10 4 24 0 32 -5 13
-10 13 -41 -2 -28 -13 -35 -22 -35 -45 0 -36 -23 -37 -60 -1 -23 21 -27 31
-19 45 11 21 6 24 -9 5z"/>
<path d="M127 183 c-12 -11 -8 -23 8 -23 8 0 15 7 15 15 0 16 -12 20 -23 8z"/>
<path d="M230 120 c-8 -6 -25 -10 -37 -10 -21 0 -23 -5 -23 -50 l0 -51 30 16
c21 11 32 27 40 56 13 46 11 52 -10 39z"/>
<path d="M272 91 c-13 -36 -11 -36 29 -15 33 17 34 37 2 42 -15 2 -23 -5 -31
-27z"/>
</g>
</svg>
